# xmcd
#
# Track frame offsets:
#	150
#	20315
#	42005
#	62167
#
# Disc length: 1114 seconds
#
# Revision: 1
# Processed by: cddbd v1.5.1PL0 Copyright (c) Steve Scherf et al.
# Submitted via: CDex 1.50Beta5
#
DISCID=28045804
DTITLE=上野未来 - 雨(琴バージョン) (Single)
DYEAR=1900
DGENRE=Pop
TTITLE0=雨(琴バージョン)
TTITLE1=Now Or Never
TTITLE2=雨(琴バージョン)(Instrumental)
TTITLE3=NOW OR NEVER(instrumental)
EXTD=
EXTT0=
EXTT1=
EXTT2=
EXTT3=
PLAYORDER=
